<svg xmlns:x="&amp;ns_extend;" xmlns:i="&amp;ns_ai;" xmlns:graph="&amp;ns_graphs;" xmlns="http://www.w3.org/2000/svg" xmlns:xlink="http://www.w3.org/1999/xlink" version="1.1" id="Layer_1" x="0px" y="0px" viewBox="0 0 232.7772369 315" style="enable-background:new 0 0 232.7772369 315;" xml:space="preserve">
      <style type="text/css">.st0{fill:#FFFFFF;}	.st1{fill:#DB3131;}</style>
    <metadata>
              <sfw>
                      <slices/>
                  <sliceSourceBounds bottomLeftOrigin="true" height="315" width="232.7772369" x="-0.2136994" y="-303.2855835"/>
                  </sfw>
          </metadata>
    <g id="color_index_1" fill="#f6f6f6" style="fill: rgb(246, 246, 246);">
              <path d="M116.4126129,256.3317261c-27.4074097,0-53.1868896-3.0376282-75.7187195-8.3828888&#9;&#9;c-5.4611282-1.2955475-9.584795-4.9032898-10.7025299-9.3387146c-8.1527863-32.3520966-8.1389904-72.3621063,0.0259476-104.6984253&#9;&#9;c1.1318779-4.482666,5.3531685-8.0456772,10.8639526-9.3786163c44.7126198-10.815033,106.3322601-10.818985,151.044754-0.0006104&#9;&#9;c5.5102386,1.3332291,9.7310181,4.8960419,10.8628235,9.3783875c8.1651306,32.336853,8.178894,72.3480072,0.0258331,104.7005768&#9;&#9;c-1.1175995,4.4348297-5.2402344,8.0424042-10.7004852,9.3382263&#9;&#9;C169.5929108,253.2944031,143.802002,256.3317261,116.4126129,256.3317261z"/>
        <circle cx="65.9530869" cy="279.0165405" r="13.2693424"/>
        <circle cx="116.4034042" cy="279.0165405" r="13.2693424"/>
        <circle cx="166.8537292" cy="279.0165405" r="13.2693424"/>
          </g>
    <g id="color_index_0" fill="#DB3131" style="fill: rgb(237, 127, 57);">
              <path d="M194.7520752,101.8780975c-17.3200684-5.2801285-36.9453888-8.6846619-57.6251678-10.0485001&#9;&#9;l31.5102692-26.1333237l-0.3788452-13.6619186l15.9753876,0.7248535l31.8538513-26.4180889l0.9673157,1.1542072&#9;&#9;c2.2818909,2.7226181,6.3388824,3.0799942,9.0615082,0.7982006l4.3600616-3.65415&#9;&#9;c2.7227173-2.2818985,3.0800934-6.3388844,0.7981873-9.0616083l-11.127243-13.2769737&#9;&#9;c-2.2818909-2.7227235-6.3388824-3.0800986-9.061615-0.7982011l-4.3600616,3.6541512&#9;&#9;c-2.7227173,2.2818975-3.0800934,6.3388844-0.7981873,9.0615025l1.2994232,1.5505209l-27.6942596,22.969883l-13.6652832-0.6204605&#9;&#9;c-3.0576935-0.112812-6.0278168,1.0068779-8.1981659,3.138504c-2.1703491,2.1316223-3.3658142,5.098381-3.2816315,8.1400719&#9;&#9;l0.2744598,9.9686203l-38.2496719,31.7229462L25.5697517,15.745512l1.2799644-1.5272636&#9;&#9;c2.2817917-2.7226181,1.9245224-6.7796049-0.7982025-9.0615025L21.691452,1.5025947&#9;&#9;c-2.722723-2.2818975-6.7797098-1.9245224-9.0616074,0.7982011L1.5025947,15.5777693&#9;&#9;c-2.2818975,2.722724-1.9245224,6.7797098,0.7982011,9.0616083l4.3600616,3.65415&#9;&#9;c2.7226176,2.2817936,6.7796054,1.9244175,9.0615025-0.7982006l0.9867802-1.1774654l78.9889679,65.5116348&#9;&#9;c-20.6832504,1.3638306-40.313942,4.7682648-57.6396942,10.0485992&#9;&#9;c-16.0637856,4.8946457-28.0773182,18.0901718-31.3530464,34.4359741&#9;&#9;c-8.3581181,41.7148285-8.3682203,91.5267944-0.0260978,133.2449799&#9;&#9;c3.2883568,16.4451599,15.3052559,29.644043,31.3639889,34.4477539C62.4432755,311.3008118,88.8107452,315,116.4124069,315&#9;&#9;c27.2110214,0,54.3058701-3.8019104,78.3464127-10.9914856c16.0578918-4.7969971,28.0781555-17.9975891,31.3665161-34.4477844&#9;&#9;c8.3446503-41.7148132,8.334549-91.5284576-0.0235748-133.2415924&#9;&#9;C222.830246,119.9749985,210.8200684,106.77948,194.7520752,101.8780975z M47.1044502,129.6290741&#9;&#9;c41.0281715-9.92379,97.570282-9.9274673,138.5982361-0.0005188c5.0561829,1.2233429,8.9292145,4.4925537,9.9677734,8.6055145&#9;&#9;c3.5179749,13.932373,5.3649445,29.4186401,5.583313,44.9996033c-6.5843964,6.8113861-14.0127716,14.5605164-14.0127716,14.5605164&#9;&#9;c-5.8786926-10.6947327-11.9199829-21.4364014-18.0206146-31.9761353&#9;&#9;c-2.9318237-4.7470093-10.3947144-4.0665588-12.5596008,1.0528717c0,0-11.1348267,20.6614685-15.6497803,29.2761383&#9;&#9;c-3.1702881-8.5512238-15.4842682-41.0521545-15.4843674-41.0520477c-1.2691269-3.6977234-5.2081451-6.4189758-9.0286713-6.3690948&#9;&#9;c-3.7929611-0.3049622-8.2702484,3.0036926-9.2488251,6.34552c0,0-12.3196564,32.563858-15.4927826,41.1301422&#9;&#9;c-4.5726318-8.7160187-16.3759079-30.7745819-17.2881851-31.6119232&#9;&#9;c-3.1701736-3.2439575-8.9732056-2.2799072-11.0531616,1.5109406&#9;&#9;c-0.6845474,1.1994629-17.6301956,31.2948608-17.8620262,31.7129517&#9;&#9;c-4.3928947-4.6653442-9.2570267-9.7906647-13.9990902-14.6806946c0.2249908-15.5466614,2.0715351-30.9957733,5.581831-44.897934&#9;&#9;C38.1743851,134.1216278,42.0478439,130.8522186,47.1044502,129.6290741z M65.9530487,288.237793&#9;&#9;c-5.0927048,0-9.2212524-4.1284485-9.2212524-9.2212524s4.1285477-9.221344,9.2212524-9.221344&#9;&#9;c5.092804,0,9.2213516,4.12854,9.2213516,9.221344S71.0458527,288.237793,65.9530487,288.237793z M116.4033585,288.237793&#9;&#9;c-5.0927048,0-9.2212524-4.1284485-9.2212524-9.2212524s4.1285477-9.221344,9.2212524-9.221344&#9;&#9;c5.092804,0,9.2213516,4.12854,9.2213516,9.221344S121.4961624,288.237793,116.4033585,288.237793z M166.853775,288.237793&#9;&#9;c-5.0928192,0-9.2213593-4.1284485-9.2213593-9.2212524s4.12854-9.221344,9.2213593-9.221344&#9;&#9;c5.0926971,0,9.2212372,4.12854,9.2212372,9.221344S171.9464722,288.237793,166.853775,288.237793z M185.8753662,242.8757629&#9;&#9;c-20.6654663,4.9043427-44.3311462,7.6913605-69.4634857,7.6913605c-25.1489639,0-48.8042374-2.7873383-69.4793854-7.6920929&#9;&#9;c-5.0110435-1.1888275-8.7949448-4.4992828-9.8205566-8.5692139c-3.6273193-14.394043-5.4767036-30.4408722-5.5821476-46.5352783&#9;&#9;c5.3825169,8.185318,10.7446194,16.1771088,10.7446194,16.177002c1.4965324,2.7928162,5.7677765,3.0866241,7.6254768,0.4465179&#9;&#9;c1.4727516-2.0140839,14.4947395-19.4971619,18.4399681-24.9088287&#9;&#9;c5.3241119,12.3475494,10.9683456,25.1277161,16.4458923,37.2237549c2.7505035,6.2463837,12.0406799,6.8895721,15.6433716,1.074646&#9;&#9;c0.8723907-1.2015686,12.3453369-29.8295746,15.940979-38.858139c0.4862823,1.2364044,0.9359512,2.3785095,1.3240585,3.3621368&#9;&#9;c0,0,13.7222214,33.7336426,13.7222214,33.7335358c1.6462708,4.5741119,7.0930939,7.0522766,11.6147919,5.2697144&#9;&#9;c2.3930206-0.8708191,4.2891388-2.8246002,5.2127686-5.1065979c0.1970062-0.413681,14.8963165-33.6216888,16.2072296-36.6832581&#9;&#9;c4.0679321,5.5932922,18.2720184,24.6927795,18.2720184,24.6926727c1.5177917,2.4366913,5.3001099,2.7733307,7.1854858,0.607193&#9;&#9;c2.1324615-3.0073853,6.9554596-10.2876892,11.3679199-17.0341492&#9;&#9;c-0.1051178,16.0962067-1.9547272,32.1448364-5.5824585,46.5403442&#9;&#9;C194.6686249,238.3764801,190.8856659,241.6867218,185.8753662,242.8757629z"/>
          </g>
  </svg>
